<svg width="65" height="74" viewBox="0 0 65 74" fill="none" xmlns="http://www.w3.org/2000/svg">
<path d="M0 13.6035V0.00976562H7.20117V13.6035H0ZM7.20703 13.6035V0.00976562H14.4082V13.6035H7.20703ZM18.5215 13.6035V6.42578H14.4141V5.56445H19.3828V13.6035H18.5215ZM16.6465 8.30078H14.4141V7.43945H17.5078V13.6035H16.6465V8.30078ZM43.2422 13.6035V0.00976562H50.4434V13.6035H43.2422ZM50.4492 13.6035V0.00976562H57.6504V13.6035H50.4492ZM61.7637 13.6035V6.42578H57.6562V5.56445H62.625V13.6035H61.7637ZM59.8887 8.30078H57.6562V7.43945H60.75V13.6035H59.8887V8.30078ZM0 26.6035V13.0098H7.20117V26.6035H0ZM7.20703 26.6035V13.0098H14.4082V26.6035H7.20703ZM18.5215 26.6035V13.0098H19.3828V26.6035H18.5215ZM16.6465 26.6035V13.0098H17.5078V26.6035H16.6465ZM43.2422 26.6035V13.0098H50.4434V26.6035H43.2422ZM50.4492 26.6035V13.0098H57.6504V26.6035H50.4492ZM61.7637 26.6035V13.0098H62.625V26.6035H61.7637ZM59.8887 26.6035V13.0098H60.75V26.6035H59.8887ZM0 39.6035V26.0098H7.20117V39.6035H0ZM7.20703 39.6035V26.0098H14.4082V39.6035H7.20703ZM18.5215 39.6035V26.0098H19.3828V39.6035H18.5215ZM16.6465 39.6035V26.0098H17.5078V39.6035H16.6465ZM43.2422 39.6035V26.0098H50.4434V39.6035H43.2422ZM50.4492 39.6035V26.0098H57.6504V39.6035H50.4492ZM61.7637 39.6035V26.0098H62.625V39.6035H61.7637ZM59.8887 39.6035V26.0098H60.75V39.6035H59.8887ZM3.09375 39.0098V46.4395H7.20117V47.3008H2.23242V39.0098H3.09375ZM4.96875 44.5645H7.20117V45.4258H4.10742V39.0098H4.96875V44.5645ZM7.20703 52.6035V39.0098H14.4082V52.6035H7.20703ZM14.4141 52.6035V39.0098H21.6152V52.6035H14.4141ZM25.7285 52.6035V45.4258H21.6211V44.5645H26.5898V52.6035H25.7285ZM23.8535 47.3008H21.6211V46.4395H24.7148V52.6035H23.8535V47.3008ZM36.0352 52.6035V39.0098H43.2363V52.6035H36.0352ZM43.2422 52.6035V39.0098H50.4434V52.6035H43.2422ZM53.543 52.6035H52.6816V44.5645H57.6504V45.4258H53.543V52.6035ZM55.418 47.3008V52.6035H54.5566V46.4395H57.6504V47.3008H55.418ZM61.7637 39.0098H62.625V47.3008H57.6562V46.4395H61.7637V39.0098ZM59.8887 44.5645V39.0098H60.75V45.4258H57.6562V44.5645H59.8887ZM10.3008 52.0098V59.4395H14.4082V60.3008H9.43945V52.0098H10.3008ZM12.1758 57.5645H14.4082V58.4258H11.3145V52.0098H12.1758V57.5645ZM14.4141 65.6035V52.0098H21.6152V65.6035H14.4141ZM21.6211 65.6035V52.0098H28.8223V65.6035H21.6211ZM28.8281 65.6035V52.0098H36.0293V65.6035H28.8281ZM36.0352 65.6035V52.0098H43.2363V65.6035H36.0352ZM46.3359 65.6035H45.4746V57.5645H50.4434V58.4258H46.3359V65.6035ZM48.2109 60.3008V65.6035H47.3496V59.4395H50.4434V60.3008H48.2109ZM54.5566 52.0098H55.418V60.3008H50.4492V59.4395H54.5566V52.0098ZM52.6816 57.5645V52.0098H53.543V58.4258H50.4492V57.5645H52.6816ZM17.5078 65.0098V72.4395H21.6152V73.3008H16.6465V65.0098H17.5078ZM19.3828 70.5645H21.6152V71.4258H18.5215V65.0098H19.3828V70.5645ZM28.8223 71.4258H21.6211V70.5645H28.8223V71.4258ZM28.8223 73.3008H21.6211V72.4395H28.8223V73.3008ZM36.0293 71.4258H28.8281V70.5645H36.0293V71.4258ZM36.0293 73.3008H28.8281V72.4395H36.0293V73.3008ZM43.2363 71.4258H36.0352V70.5645H43.2363V71.4258ZM43.2363 73.3008H36.0352V72.4395H43.2363V73.3008ZM47.3496 65.0098H48.2109V73.3008H43.2422V72.4395H47.3496V65.0098ZM45.4746 70.5645V65.0098H46.3359V71.4258H43.2422V70.5645H45.4746Z" fill="white"/>
</svg>